<?xml version="1.0" encoding="utf-8"?>
<!-- Generator: Adobe Illustrator 15.0.0, SVG Export Plug-In . SVG Version: 6.00 Build 0)  -->
<!DOCTYPE svg PUBLIC "-//W3C//DTD SVG 1.1//EN" "http://www.w3.org/Graphics/SVG/1.1/DTD/svg11.dtd">
<svg version="1.1" id="Layer_1" xmlns="http://www.w3.org/2000/svg" xmlns:xlink="http://www.w3.org/1999/xlink" x="0px" y="0px"
	 width="103px" height="119px" viewBox="52.5 39.5 103 119" enable-background="new 52.5 39.5 103 119" xml:space="preserve">
<g id="Layer_1_1_" display="none">
	<g id="ZfNzEo_1_" display="inline">
		
			<image overflow="visible" enable-background="new    " width="604" height="904" id="ZfNzEo_2_" xlink:href="3A7E9791.png"  transform="matrix(0.4851 0 0 0.4853 -45.4126 1.7725)">
		</image>
	</g>
</g>
<g id="Layer_2">
	<g>
		<g>
			<path fill="#231F20" d="M111.372,96.486c1.86-0.741,3.69-1.469,5.659-1.878c3.017-0.627,5.818,0.904,8.148,2.62
				c1.942,1.431,3.59,2.617,5.994,3.102c1.159,0.234,1.307-0.552,0.15-0.785c-2.325-0.469-3.938-2.151-5.827-3.439
				c-1.373-0.935-3.07-1.72-4.687-2.106c-3.951-0.943-7.399,0.306-11.06,1.764C109.084,96.03,110.88,96.682,111.372,96.486
				L111.372,96.486z"/>
		</g>
	</g>
	<g>
		<g>
			<path fill="#231F20" d="M111.738,95.951c4.316,2.066,9.461,4.118,13.939,1.35c0.238-0.148,0.338-0.325,0.084-0.502
				c-3.427-2.391-8.369-4.618-11.959-1.31c-0.138,0.127-0.143,0.329,0.061,0.399c3.181,1.117,6.443,1.549,9.806,1.594
				c0.597,0.008,1.835-0.811,0.654-0.836c-2.825-0.062-5.532-0.938-8.367-0.942c-0.226,0-1.697,0.371-1.03,0.747
				c1.764,0.995,3.449,1.29,5.444,1.268c0.608-0.007,3.104-0.279,2.637-1.392c-0.44-1.049-2.834-1.35-3.747-1.531
				c-1.404-0.28-3.004-0.465-4.371,0.062c-0.557,0.214-0.522,0.659,0.102,0.683c1.904,0.073,3.695,0.536,5.539,0.968
				c0.369-0.266,0.738-0.533,1.107-0.799c-2.895-0.166-5.791-0.199-8.688-0.312c-0.595-0.023-2.187,0.781-0.896,0.831
				c2.896,0.113,5.794,0.147,8.688,0.312c0.359,0.021,2.146-0.555,1.105-0.799c-1.982-0.465-3.916-0.954-5.96-1.032
				c0.034,0.228,0.068,0.456,0.103,0.683c1.119-0.432,3.465,0.458,4.502,0.906c1.134,0.49,0.232,0.597-0.482,0.57
				c-1.253-0.047-2.354-0.462-3.433-1.07c-0.345,0.249-0.687,0.498-1.03,0.747c2.662,0.004,5.219,0.875,7.883,0.933
				c0.219-0.279,0.438-0.557,0.654-0.836c-2.143-0.029-4.227-0.267-6.316-0.729c-2.115-0.467,0.56-1.234,1.461-1.014
				c1.006,0.246,1.957,0.764,2.859,1.253c0.542,0.294,1.059,0.639,1.571,0.98c-0.878,0.683-1.892,0.901-3.038,0.657
				c-0.674-0.075-1.338-0.204-1.99-0.384c-1.822-0.448-3.556-1.3-5.24-2.106C112.908,95.07,111.08,95.636,111.738,95.951
				L111.738,95.951z"/>
		</g>
	</g>
	<g>
		<g>
			<path fill="#231F20" d="M122.607,97.016c-0.836-0.016-2.237-0.293-2.731,0.607c-0.106,0.194,0.021,0.32,0.194,0.424
				c0.505,0.303,1.119,0.374,1.646,0.215c0.357-0.107,0.438-0.352,0.088-0.559c-0.375-0.221-0.974-0.343-1.397-0.215
				c-0.11,0.033-0.22,0.066-0.325,0.111c0.521,0.053,1.044,0.106,1.564,0.16c-0.03-0.019-0.062-0.037-0.092-0.056
				c0.063,0.142,0.129,0.283,0.193,0.424c0.268-0.486,0.797-0.276,1.268-0.268c0.164,0.003,0.941-0.014,0.766-0.38
				C123.609,97.123,122.947,97.022,122.607,97.016L122.607,97.016z"/>
		</g>
	</g>
	<g>
		<g>
			<path fill="#231F20" d="M99.573,94.889c-2.289-2.625-5.354-4.605-8.896-4.677c-1.546-0.031-3.287,0.234-4.743,0.752
				c-2.645,0.942-5.077,2.829-8.004,2.673c-1.362-0.073-0.469,0.806,0.39,0.853c2.656,0.142,4.764-0.807,7.116-1.949
				c1.644-0.799,3.336-1.25,5.15-1.439c2.847-0.297,5.457,1.87,7.217,3.887C98.151,95.386,100.074,95.462,99.573,94.889
				L99.573,94.889z"/>
		</g>
	</g>
	<g>
		<g>
			<path fill="#231F20" d="M84.831,93.115c1.112,0.216,2.09,0.791,3.192,1.019c1.175,0.243,2.347,0.292,3.544,0.337
				c1.962,0.075,3.659-0.092,5.366-1.102c0.441-0.261,0.018-0.609-0.269-0.715c-1.439-0.537-2.848-1.568-4.418-1.688
				c-1.71-0.131-3.139,0.346-4.796,0.663c-0.271,0.051-1.639,0.498-0.854,0.922c2.361,1.278,4.935,1.301,7.558,1.298
				c0.883,0,2.241-0.829,0.704-1.152c-1.341-0.282-2.659-0.656-4-0.938c-0.896-0.188-3.367,0.706-1.464,1.105
				c1.341,0.282,2.659,0.656,4,0.938c0.234-0.384,0.469-0.768,0.704-1.152c-1.717,0.001-3.391,0.014-4.942-0.827
				c-0.285,0.308-0.57,0.615-0.854,0.922c0.884-0.168,2.375-0.758,3.195-0.517c1.061,0.312,2.046,0.981,3.09,1.371
				c-0.089-0.238-0.179-0.477-0.269-0.715c-2.431,1.439-5.604-0.406-8.022-0.875C85.4,91.836,82.923,92.745,84.831,93.115
				L84.831,93.115z"/>
		</g>
	</g>
	<g>
		<g>
			<path fill="#231F20" d="M100.438,98.976c0.324,2.116-1.275,4.281-2.351,5.971c-1.308,2.055-2.888,4.019-3.817,6.285
				c-0.467,1.141-0.17,2.761,1.367,2.89c0.756,0.063,1.247-0.035,1.935-0.392c2.58-1.336,2.737,0.021,4.64,0.813
				c2.401,1.002,4.075-2.215,6.335-0.815c1.495,0.926,2.611,1.084,3.893-0.244c1.153-1.196-0.883-4.09-1.441-5.064
				c-1.255-2.188-3.314-4.843-2.909-7.507c0.038-0.249-0.953-0.302-1,0.008c-0.642,4.215,3.929,7.448,4.614,11.384
				c0.306,1.754-1.732,1.562-2.785,0.911c-0.406-0.251-0.993-0.493-1.482-0.476c-0.545,0.021-1.051,0.02-1.549,0.285
				c-0.496,0.267-0.935,0.567-1.389,0.899c-1.354,0.988-2.398-0.295-3.305-0.952c-1.051-0.768-2.25-0.664-3.357-0.129
				c-4.063,1.963-2.643-1.674-1.658-3.371c1.675-2.889,5.819-6.867,5.261-10.505C101.391,98.661,100.399,98.723,100.438,98.976
				L100.438,98.976z"/>
		</g>
	</g>
	<g>
		<g>
			<path fill="#231F20" d="M105.58,113.829c0.34,0.647,1.259,0.808,1.914,0.89c0.626,0.079,1.643,0.092,2.092-0.443
				c0.047-0.056,0.031-0.111-0.018-0.16c-0.856-0.85-2.572-1.167-3.658-0.613c-0.088,0.045-0.119,0.119-0.041,0.197
				c0.72,0.716,2.038,0.996,3.011,0.763c0.091-0.022,0.19-0.053,0.165-0.165c-0.207-0.934-1.757-0.954-2.486-0.882
				c-0.115,0.012-0.242,0.114-0.127,0.222c0.569,0.528,1.246,0.852,2.03,0.836c0.215-0.006,0.378-0.123,0.163-0.287
				c-0.402-0.31-0.771-0.474-1.277-0.524c0.101,0.146,0.201,0.291,0.303,0.437c0.229,0,0.457,0,0.688,0
				c-0.143-0.146-0.281-0.294-0.424-0.44c-0.773,0.038-1.539-0.104-2.312-0.062c-0.119,0.007-0.387,0.065-0.23,0.231
				c0.73,0.781,1.807,0.663,2.779,0.646c0.646-0.011-0.121-0.445-0.424-0.44c-0.496,0.009-1.098,0.171-1.47-0.228
				c-0.077,0.076-0.153,0.153-0.231,0.23c0.772-0.041,1.539,0.1,2.312,0.062c0.657-0.033-0.134-0.441-0.424-0.441
				c-0.229,0-0.458,0-0.688,0c-0.61,0,0.029,0.408,0.303,0.437c0.125,0.013,0.252,0.152,0.347,0.226
				c0.056-0.096,0.108-0.19,0.163-0.286c-0.27,0.006-0.54-0.248-0.721-0.415c-0.041,0.072-0.084,0.146-0.125,0.222
				c0.35-0.035,0.795-0.043,0.888,0.368c0.056-0.055,0.11-0.109,0.165-0.165c-0.51,0.122-1.109,0.015-1.489-0.362
				c-0.014,0.065-0.026,0.133-0.041,0.197c0.415-0.211,0.874-0.23,1.321-0.109c0.346,0.094,0.775,0.239,0.295,0.438
				c-0.448,0.185-1.52,0.226-1.786-0.281C106.404,113.652,105.464,113.607,105.58,113.829L105.58,113.829z"/>
		</g>
	</g>
	<g>
		<g>
			<path fill="#231F20" d="M88.176,122.271c3.118,3.817,7.731,5.429,12.45,6.146c2.799,0.427,5.647,0.327,8.429-0.162
				c3.106-0.548,5.053-2.008,7.555-3.767c0.381-0.269-1.344-0.954-1.844-0.604c-1.492,1.051-2.765,2.238-4.511,2.87
				c-2.616,0.947-5.453,1.146-8.207,0.988c-4.589-0.263-9.13-1.879-12.099-5.515C89.613,121.818,87.694,121.682,88.176,122.271
				L88.176,122.271z"/>
		</g>
	</g>
	<g>
		<g>
			<path fill="#231F20" d="M89.208,122.445c2.632,0.5,5.126,1.572,7.796,1.863c3.024,0.328,6.057,0.242,9.068,0.697
				c3.746,0.564,8.26,1.508,11.572-0.881c0.416-0.301-1.302-1.104-1.789-0.752c-3.481,2.511-8.299,0.876-12.186,0.447
				c-2.173-0.24-4.366-0.198-6.545-0.364c-2.79-0.213-5.459-1.379-8.209-1.901C87.575,121.3,88.369,122.286,89.208,122.445
				L89.208,122.445z"/>
		</g>
	</g>
	<g>
		<g>
			<path fill="#231F20" d="M117.064,116.634c2.062,1.675,3.871,3.214,3.271,6.101c-0.486,2.342-1.921,4.435-2.682,6.689
				c-0.189,0.564,1.756,0.445,1.938-0.098c0.843-2.501,2.279-4.756,2.819-7.358c0.553-2.659-1.646-4.364-3.479-5.852
				C118.462,115.732,116.693,116.334,117.064,116.634L117.064,116.634z"/>
		</g>
	</g>
	<path fill="none" stroke="#231F20" d="M138.875,96.984c0,0,1.75-2.062,4.375-0.75s-1.096,10.655-1.375,13.391
		c-0.5,4.872-2.87,9.625-5.12,10.125s-2.755-3.5-3.88-2.25c0,0-0.75,7.875-2.25,12.625s-19.875,18.542-22.458,20.209
		s-12.375,0-12.375,0c-2.25-0.75-6.414-6.378-9.417-9.084s-12.75-17.25-13.25-20.625s-0.124-10.792-0.124-10.792
		s-1.292,3.804-4.917,2.5s-3.917-4.25-3.833-8.75c0.057-3.043-3.444-16.335,0.5-16.602c4-0.271,4.978,2.238,4.978,2.238"/>
	<g>
		<g>
			<path fill="#231F20" d="M70.225,89.152c-0.144-7.064,0.703-13.687,3.302-20.275c1.262-3.198,2.777-6.277,4.747-9.101
				c2.556-3.665,5.705-5.67,9.75-7.389c0.597-0.253-0.265-0.395-0.547-0.274c-3.471,1.475-6.111,2.914-8.666,5.774
				c-2.475,2.771-4.185,6.156-5.647,9.54c-3.058,7.074-4.086,14.174-3.931,21.861C69.239,89.549,70.23,89.458,70.225,89.152
				L70.225,89.152z"/>
		</g>
	</g>
	<g>
		<g>
			<path fill="#231F20" d="M87.396,51.926c1.152,3.298,4.5,6.293,7.684,7.612c1.843,0.764,4.021,0.719,5.966,0.998
				c3.908,0.56,4.162,3.892,7.104,5.449c1.473,0.779,3.076,1.123,4.713,1.376c3.428,0.53,7.674-0.704,10.59,1.639
				c5.342,4.292,9.74,10.076,14.355,15.11c0.118,0.129,0.965,0.449,0.922,0.088c-0.133-1.125-0.416-2.168-0.75-3.25
				c-0.395-1.276-1.293-3.486,0.982-2.223c0.107,0.061,0.725,0.275,0.771,0.029c0.041-0.219,0.199-2.574,0.353-2.537
				c0.581,0.139,1.144,0.33,1.728,0.451c0.549,0.113,1.063,0.061,1.336-0.449c0.17-0.317-0.418-1.369,0.256-1.407
				c0.439-0.025,1.164-0.104,1.527-0.38c0.74-0.566,0.344-1.297-0.035-1.997c-4.181-7.719-8.027-16.475-15.252-21.852
				c-5.811-4.323-13.25-6.04-20.385-6.062c-7.184-0.022-17.25,1.563-21.836,7.675c-0.19,0.254,0.739,0.572,0.903,0.354
				c3.598-4.794,10.322-6.342,15.97-7.173c6.135-0.902,12.504-0.309,18.307,1.887c6.107,2.311,10.487,6.634,13.978,12.017
				c2.076,3.204,3.89,6.572,5.647,9.958c0.539,1.039,1.115,2.041,1.709,3.048c0.979,1.659-0.225,2.016-1.867,2.108
				c-0.076,0.004-0.211,0.05-0.174,0.155c0.455,1.32,0.295,1.864-1.295,1.397c-0.435-0.127-0.858-0.229-1.305-0.294
				c-0.062-0.009-0.406-0.047-0.404,0.091c0.021,0.94,0.051,1.823-0.125,2.75c0.258,0.01,0.515,0.019,0.771,0.029
				c-0.973-0.541-1.768-0.959-2.866-1.12c-0.118-0.018-0.425-0.048-0.401,0.147c0.266,2.228,1.235,4.272,1.5,6.5
				c0.309,0.029,0.615,0.059,0.924,0.088c-4.243-4.63-8.389-9.351-12.875-13.75c-1.17-1.147-2.353-2.207-3.872-2.849
				c-2-0.845-4.619-0.426-6.72-0.452c-3.752-0.047-6.767-0.78-8.934-3.954c-1.141-1.671-2.629-2.402-4.555-2.878
				c-2.826-0.698-5.58-0.311-8.13-2.026c-2.169-1.459-4.378-3.646-5.254-6.156C88.256,51.793,87.306,51.669,87.396,51.926
				L87.396,51.926z"/>
		</g>
	</g>
	<g>
		<g>
			<path fill="#231F20" d="M139.736,96.632c0.175-6.895,4.394-13.726,1.744-20.572c-0.098-0.251-1.078-0.173-0.961,0.129
				c2.623,6.779-1.61,13.637-1.783,20.466C138.73,96.932,139.729,96.927,139.736,96.632L139.736,96.632z"/>
		</g>
	</g>
	<g>
		<g>
			<path fill="#231F20" d="M113.396,63.576c8.639-4.317,16.557,1.188,23.228,6.477c0.2,0.159,1.166,0.221,0.754-0.104
				c-7.065-5.602-15.68-11.317-24.772-6.773C112.262,63.346,113.158,63.695,113.396,63.576L113.396,63.576z"/>
		</g>
	</g>
	<g>
		<g>
			<path fill="#231F20" d="M122.271,65.585c6.41-0.154,12.008,4.951,15.758,9.662c0.183,0.228,1.119-0.019,0.939-0.244
				c-3.962-4.977-9.757-10-16.49-9.838C122.05,65.175,121.589,65.602,122.271,65.585L122.271,65.585z"/>
		</g>
	</g>
	<g>
		<g>
			<path fill="#231F20" d="M101.671,58.264c4.634-2.68,10.375-2.831,15.581-2.467c3.189,0.224,6.005,1.159,8.898,2.486
				c2.418,1.109,5.379,1.744,7.535,3.279c0.215,0.153,1.164,0.08,0.879-0.124c-2.479-1.763-5.729-2.477-8.479-3.737
				c-2.862-1.313-5.668-2.037-8.798-2.301c-5.448-0.462-11.616-0.213-16.458,2.586C100.51,58.17,101.441,58.397,101.671,58.264
				L101.671,58.264z"/>
		</g>
	</g>
	<g>
		<g>
			<path fill="#231F20" d="M110.161,59.67c7.778-2.113,17.96-0.803,24.121,4.708c0.226,0.202,1.122-0.088,0.936-0.255
				c-6.491-5.807-17.2-7.014-25.379-4.792C109.18,59.509,109.748,59.782,110.161,59.67L110.161,59.67z"/>
		</g>
	</g>
	<g>
		<g>
			<path fill="#231F20" d="M98.768,55.147c6.257-1.817,12.876-2.271,19.359-1.816c4.773,0.335,10.637,1.418,14.273,4.769
				c0.224,0.207,1.125-0.039,0.949-0.2c-3.805-3.505-9.785-4.539-14.754-4.962c-6.785-0.578-13.822,0.015-20.365,1.915
				C97.613,55.033,98.482,55.23,98.768,55.147L98.768,55.147z"/>
		</g>
	</g>
	<g>
		<g>
			<path fill="#231F20" d="M100.773,51.57c3.791-1.815,7.945-2.088,12.09-2.09c4.646-0.002,9.521-0.146,14.092,0.714
				c0.576,0.108,0.674-0.28,0.09-0.39c-4.533-0.853-9.207-0.688-13.803-0.768c-4.506-0.077-9.141,0.167-13.265,2.142
				C99.634,51.344,100.534,51.685,100.773,51.57L100.773,51.57z"/>
		</g>
	</g>
	<g>
		<g>
			<path fill="#231F20" d="M113.004,89.605c2.598-0.758,5.197-0.818,7.878-0.606c1.824,0.144,4.035,0.267,5.487,1.463
				c0.613,0.506,3.479,0.136,2.594-0.592c-1.949-1.605-4.861-1.79-7.277-2.025c-3.408-0.331-6.888-0.249-10.188,0.715
				C109.628,89.106,112.115,89.865,113.004,89.605L113.004,89.605z"/>
		</g>
	</g>
	<g>
		<g>
			<path fill="#231F20" d="M97.221,87.574c-3.112-2.948-8.88-2.201-12.71-1.535c-1.91,0.333,0.591,1.241,1.479,1.087
				c2.68-0.467,6.461-1.082,8.623,0.965C95.188,88.638,98.067,88.375,97.221,87.574L97.221,87.574z"/>
		</g>
	</g>
	<path fill="none" stroke="#231F20" d="M100.562,90.636l6.905,0.674c0,0,0.364,5.426,1.281,7.662c0.917,2.235,0.667,1.694,3,2.861
		c0,0,11.083,2.25,13.188,0.667c2.979-1.667,6.639-9.25,4.646-10.356c-8.812-3.764-22.115-0.834-22.115-0.834L100.562,90.636z"/>
	<path fill="none" stroke="#231F20" d="M100.729,90.613c0,0-0.776,5.382-1.86,7.542c-1.085,2.158-0.794,1.639-3.209,2.624
		c0,0-11.222,1.402-13.2-0.339c-2.844-1.889-5.915-9.728-3.844-10.679C87.687,86.679,100.729,90.613,100.729,90.613L100.729,90.613z
		"/>
	<g>
		<g>
			<path fill="#231F20" d="M97.265,113.486c1.035,1.035,2.729,0.938,3.854,0.104c0.229-0.17-0.465-0.382-0.532-0.396
				c-0.897-0.162-1.661,0.283-2.537,0.24c0.197,0.146,0.395,0.293,0.592,0.438c0.438-0.14,0.843-0.354,1.292-0.459
				c0.229-0.056-0.018-0.267-0.104-0.312c-0.205-0.108-0.453-0.158-0.68-0.104c-0.448,0.106-0.854,0.321-1.292,0.459
				c-0.391,0.123,0.482,0.435,0.592,0.438c0.777,0.039,1.534-0.399,2.296-0.261c-0.178-0.132-0.355-0.264-0.532-0.395
				c-0.542,0.401-1.495,0.836-2.062,0.27c-0.163-0.163-0.418-0.237-0.644-0.243C97.405,113.266,97.101,113.323,97.265,113.486
				L97.265,113.486z"/>
		</g>
	</g>
</g>
</svg>
