<?xml version="1.0" encoding="utf-8"?>
<!-- Generator: Adobe Illustrator 15.0.0, SVG Export Plug-In . SVG Version: 6.00 Build 0)  -->
<!DOCTYPE svg PUBLIC "-//W3C//DTD SVG 1.1//EN" "http://www.w3.org/Graphics/SVG/1.1/DTD/svg11.dtd">
<svg version="1.1" id="Layer_1" xmlns="http://www.w3.org/2000/svg" xmlns:xlink="http://www.w3.org/1999/xlink" x="0px" y="0px"
	 width="120px" height="120px" viewBox="0 0 120 120" enable-background="new 0 0 120 120" xml:space="preserve">
<path fill-rule="evenodd" clip-rule="evenodd" fill="#FFFFFF" d="M60.054,1.812c-32.057,0-58.052,25.997-58.052,58.063
	c0,25.648,16.633,47.406,39.706,55.086c2.902,0.532,3.962-1.262,3.962-2.799c0-1.376-0.051-5.027-0.078-9.874
	c-16.151,3.51-19.558-7.78-19.558-7.78c-2.641-6.706-6.447-8.492-6.447-8.492c-5.269-3.602,0.4-3.53,0.4-3.53
	c5.827,0.409,8.892,5.981,8.892,5.981c5.181,8.874,13.589,6.312,16.898,4.824c0.526-3.753,2.027-6.312,3.687-7.76
	c-12.894-1.466-26.447-6.448-26.447-28.695c0-6.339,2.263-11.521,5.976-15.58c-0.597-1.469-2.589-7.372,0.571-15.363
	c0,0,4.875-1.563,15.965,5.951c4.63-1.288,9.595-1.935,14.534-1.957c4.93,0.021,9.896,0.668,14.537,1.957
	c11.08-7.515,15.943-5.951,15.943-5.951c3.173,7.991,1.179,13.894,0.582,15.363c3.718,4.059,5.966,9.241,5.966,15.58
	c0,22.303-13.575,27.211-26.509,28.645c2.088,1.796,3.941,5.34,3.941,10.754c0,7.764-0.07,14.022-0.07,15.927
	c0,1.554,1.048,3.358,3.995,2.793c23.048-7.691,39.668-29.442,39.668-55.081C118.116,27.809,92.121,1.812,60.054,1.812z"/>
</svg>
