<?xml version="1.0" encoding="utf-8"?>
<!-- Generator: Adobe Illustrator 15.0.0, SVG Export Plug-In . SVG Version: 6.00 Build 0)  -->
<!DOCTYPE svg PUBLIC "-//W3C//DTD SVG 1.1//EN" "http://www.w3.org/Graphics/SVG/1.1/DTD/svg11.dtd">
<svg version="1.1" id="Layer_1" xmlns="http://www.w3.org/2000/svg" xmlns:xlink="http://www.w3.org/1999/xlink" x="0px" y="0px"
	 width="612px" height="792px" viewBox="0 0 612 792" enable-background="new 0 0 612 792" xml:space="preserve">
<g>
	<path fill="none" d="M71.811,384.713c-0.41,0.265-0.723,0.528-1.133,0.775c0.267-0.135,0.581-0.276,0.991-0.453
		C71.698,384.917,71.743,384.831,71.811,384.713z"/>
	<g>
		<path fill="none" d="M313.06,446.991c-0.181,0-0.38,0.048-0.562,0.057h0.857C313.258,447.039,313.146,446.991,313.06,446.991
			L313.06,446.991z"/>
		<path d="M286.471,472.811c-2.219-2.427-4.287-4.713-6.902-6.112c-1.25-0.646-2.583-1.094-4.047-1.59
			c-2.637-0.925-5.399-1.848-7.551-4.105c-1.084-1.102-1.666-2.237-2.219-3.321c-0.265-0.541-0.551-1.096-0.895-1.676
			c-1.656-0.384-3.283-1.457-5.112-2.693c-2.729-1.817-5.815-3.855-9.396-3.855c-0.418,0.018-0.895,0.266-1.219,0.438
			c-0.704,0.379-1.589,0.846-2.819,1.181c-1.541,0.397-2.97,0.578-4.226,0.74c-3.36,0.397-4.178,0.706-4.568,2.554
			c-0.333,1.951,0.208,2.777,1.057,4.043c0.791,1.184,1.798,2.659,1.884,5.114l0.105,1.895l-1.867-0.2
			c-5.873-0.59-9.948-3.96-11.51-9.48c-0.761-2.688-0.857-5.667-0.447-8.664h-0.41c-5.427,0-9.263,1.046-11.509,3.14
			c-2.267,2.095-3.391,4.687-3.391,7.817c0,3.331,0.105,22.535,2.465,24.611c2.391,2.104,6.17,3.142,11.396,3.142l70.756-0.009
			c-0.741-1.781-1.323-3.781-1.504-6.143C291.257,478.095,288.812,475.406,286.471,472.811z"/>
		<path d="M457.295,772.886c-2.294-1.98-6.14-3.019-11.519-3.019h-86.353l1.02-322.828h-28.438
			c-1.855,1.197-4.531,1.979-8.396,1.979c-1.618,0-3.428-0.132-5.351-0.399c-1.019-0.134-1.97-0.531-2.904-0.914
			c-0.723-0.305-1.427-0.569-1.998-0.656h-0.857c-1.305,0.087-2.666,0.409-4.121,0.781c-2.618,0.684-5.837,1.417-8.694,0.904
			c-0.172,0.152-0.286,0.342-0.371,0.581c-0.79,2.408,2.322,8.025,3.979,11.034l0.476,0.798c1.677,3.083,3.97,6.484,6.416,10.075
			c3.104,4.607,6.426,9.537,8.98,14.557h18.287v284.089h-86.342c-5.234,0-8.986,1.036-11.25,3.019
			c-2.269,2.019-3.41,4.684-3.41,7.999c0,3.12,1.141,5.759,3.41,7.853c2.264,2.084,6.016,3.142,11.25,3.142h194.667
			c5.379,0,9.225-1.058,11.519-3.142c2.229-2.094,3.397-4.733,3.397-7.853C460.692,777.569,459.523,774.906,457.295,772.886z"/>
	</g>
	<path d="M488.789,94.97c6.598-0.984,12.367-4.487,16.317-9.854c3.494-4.726,5.163-10.405,4.809-16.192l-49.049,7.444
		C463.912,88.458,475.944,96.918,488.789,94.97z"/>
	<path d="M375.21,92.325c1.238,0.203,2.455,0.303,3.684,0.303c10.092,0,18.698-6.759,21.223-16.35l-43.215-7.212
		c-0.342,5.118,1.067,10.145,4.057,14.361C364.366,88.197,369.43,91.367,375.21,92.325z"/>
	<path fill="#231F20" d="M495.15,26.914c-1.228,0.053-2.542,0.404-3.904,0.872c-13.747,4.85-33.217,29.78-42.452,43.175
		c12.385-0.992,48.916-4.48,66.129-12.158c1.343-0.609,2.6-1.219,3.692-1.876c13.93-8.354,32.208-34.103,39.787-45.365
		C546.168,16.155,517.777,25.852,495.15,26.914z"/>
	<path fill="#231F20" d="M342.23,57.607c0.905,0.548,1.933,1.066,3.037,1.571c16.929,7.893,54.21,11.464,66.786,12.449
		c-9.435-13.676-29.599-39.48-43.403-43.489c-1.028-0.311-2.021-0.5-2.971-0.557c-22.631-1.047-50.99-10.765-63.252-15.333
		C310.022,23.511,328.312,49.239,342.23,57.607z"/>
	<path d="M523.586,62.249c-2.741,1.238-5.911,2.342-9.273,3.39l0.314,2.109c1.19,7.815-0.723,15.622-5.416,21.993
		c-4.713,6.363-11.596,10.523-19.394,11.685c-1.506,0.238-2.98,0.353-4.475,0.353c-14.51,0-27.066-10.819-29.247-25.182
		l-0.115-0.852c-7.824,0.752-13.319,1.113-14.042,1.162l-4.645,0.295l2.55-3.917c1.276-1.947,27.885-42.306,49.719-53.277
		c-3.6-1.918-7.361-3.709-11.198-5.346c-15.958-6.875-33.369-9.659-54.743-8.716c-17.48,0.756-33.531,3.375-45.232,8.297
		c-3.38,1.413-6.454,3.132-9.367,5.055c22.164,9.591,50.145,51.982,51.458,53.987l2.533,3.917l-4.616-0.295
		c-0.648-0.048-4.857-0.31-11.142-0.89l-0.199,1.219c-2.388,14.308-14.622,24.732-29.134,24.732c-1.656,0-3.274-0.132-4.91-0.428
		c-7.798-1.276-14.614-5.551-19.233-11.977c-4.588-6.438-6.417-14.27-5.111-22.063l0.181-0.995
		c-4.855-1.367-9.226-2.918-12.853-4.632c-2.039,3.751-4.027,7.545-6.13,11.283c-3.029,5.449-7.39,11.085-10.379,16.585
		c-2.132,3.864-5.179,14.726-10.377,16.602c-3.847,1.391-9.387,1.099-13.69,1.658c-33.76,4.411-53.335,16.194-73.441,34.454
		c-10.005,9.068-22.708,17.818-34.835,26.938c-11.282,8.5-24.62,18.612-29.867,31.955c-0.798,2.023-0.57,4.06-1.266,5.816
		c-1.952,5.146-6.463,10.554-9.94,15.338c-10.958,14.999-23.525,28.49-34.873,41.91c1.285,1.246,4.607,0.394,6.263,1.246
		c-9.995,11.473-21.781,21.069-31.55,32.768c-9.872,11.833-17.183,25.146-25.733,38.579c-0.162,1.862,2.313,1.047,1.704,3.34
		c-1.58,6.426-8.13,10.189-10.824,15.763c-0.725,1.503-0.611,3.459-1.258,4.973c-2.322,5.667-7.416,10.854-11.186,16.176
		c-7.731,10.887-14.805,22.241-20.727,34.021c-2.961,5.885-6.835,12.254-7.073,19.488c6.483-1.74,11.339-6.462,16.184-10.367
		c14.423-11.557,27.133-24.495,42.899-34.378c0-0.091,0.256-0.272,0.781-0.533c0.41-0.248,0.724-0.511,1.133-0.775
		c-0.068,0.118-0.113,0.204-0.143,0.322c0.075-0.058,0.143-0.058,0.257-0.118c67.51-28.923,144.635-46.616,204.956-90.387
		c32-23.231,98.489-78.877,65.435-123.034c-2.694-3.551,5.95-6.988,8.284-3.87c32.816,43.827-7.162,84.009-55.088,124.609
		c-68.774,58.299-148.87,62.04-221.264,93.072c0,0-1.732,0.442-3.046,0.659c-9.597,21.629-22.164,40.938-33.845,60.559
		c-8.959,15.099-18.489,30.028-26.943,45.241c-2.856,5.083-6.569,10.339-6.665,16.604c3.341,2.741,7.997-0.181,11.634-0.855
		c1.237,0.838,1.162,2.997,2.056,4.17c3.99,3.311,10.055,0.979,14.948,2.9c2.161,0.829,3.313,3.343,4.97,4.123
		c5.502,2.647,11.491,0.039,18.698,0.847c2.961,0.335,5.351,2.295,8.683,2.068c4.341-0.268,6.779-2.931,9.987-5.38
		c2.579-2.008,5.426-2.884,7.444-4.16c5.894-3.713,11.912-12.442,17.432-18.661c11.75-13.264,22.135-25.59,32.771-39.424
		c5.406-7.006,10.32-15.614,16.603-19.888c5.466-3.751,11.044-6.912,16.185-10.397c0.878,0.838-1.122,4.02,1.229,4.161
		c6.979-1.209,11.807-10.33,17.005-13.281c-0.772,2.134-1.915,4.628-1.228,7.074c3.865,2.886,10.072-1.153,14.089-0.437
		c0.163,3.578-4.951,9.158-4.551,13.699c0.619,6.854,7.36,6.454,12.853,4.151c1.658,0.398,0.858,3.311,2.505,3.723
		c16.31-2.903,23.029-15.405,36.92-20.747c0.199,0.591,1,1.182,1.078,1.694c0.169,0.838,0.846,1.582,1.14,2.259
		c-1.4,2.407-3.865,4.082-6.179,5.538c-0.924,0.584-1.846,1.192-2.657,1.819c-3.75,2.874-6.435,8.341-7.301,13.711
		c-0.419,2.729-0.419,5.445,0.257,7.77c0.981,3.482,3.115,5.72,6.341,6.682c-0.208-0.438-0.496-0.847-0.781-1.294
		c-0.96-1.43-2.179-3.2-1.55-6.484c0.847-4.36,4.284-4.781,7.349-5.18c1.229-0.144,2.486-0.304,3.816-0.659
		c0.818-0.207,1.391-0.55,2.001-0.854c0.047-0.009,0.066-0.018,0.095-0.041c0.723-0.379,1.475-0.776,2.39-0.805h0.018
		c1.752,0,3.304,0.368,4.771,0.846c2.647,0.895,4.885,2.287,6.779,3.543c1.675,1.123,3.285,2.188,4.36,2.246l0.79,0.037l0.456,0.667
		c0.677,0.935,1.098,1.829,1.545,2.667c0.504,0.988,0.904,1.769,1.587,2.514c1.638,1.693,3.913,2.455,6.283,3.273
		c1.516,0.516,3.057,1.037,4.543,1.811c3.113,1.675,5.454,4.283,7.769,6.777c2.428,2.724,4.769,5.285,7.778,6.435l1.028,0.374
		l0.048,1.074c0.124,2.968,0.875,5.312,1.991,7.304c2.141,3.778,5.722,6.216,9.559,8.597c0.267-0.754,0.902-2.114,2.664-2.114
		l1.114,0.115l0.381,0.399c3.076,3.235,4.8,8.035,5.294,15.003c1.341-2.208,1.827-5.055,1.446-8.749
		c-0.399-4.274-2.237-8.776-4.685-13.251c-2.35-4.336-5.265-8.676-8.024-12.71c-2.474-3.675-4.817-7.123-6.598-10.352l-0.428-0.79
		c-2.875-5.178-5.381-10.149-4.254-13.632c0.188-0.477,0.447-0.867,0.732-1.247c0.466-0.639,1.047-1.17,1.847-1.533l0.476-0.23
		l0.562,0.136c2.293,0.562,5.141-0.058,7.731-0.764c1.883-0.476,3.624-0.93,5.386-0.93c1.439,0.007,2.57,0.493,3.684,0.95
		c0.745,0.342,1.515,0.631,2.097,0.703c1.788,0.269,3.419,0.384,4.902,0.384c5.265,0,7.378-1.611,8.312-3.124
		c0.447-0.066,0.935-0.123,1.525-0.21c4.071,2.571,3.188,10.093,4.148,15.747c1.96-5.085,5.333-13.721,2.914-20.336
		c-0.409-1.096-1.084-1.922-1.864-2.628c-0.782-0.884-1.753-1.636-2.974-2.359c-0.969-0.63-1.998-1.249-2.904-2.059h-0.113
		c-18.754,0-39.918,0-45.202-16.547l-0.142,0.058c-0.163-0.609-0.277-1.179-0.363-1.826c-0.113-1.049-0.229-2.116-0.247-3.286
		c11.271-0.198,20.602-2.37,31.542-2.884c5.179,3.522,8.226,9.159,17.849,8.282c0.573,1.609,0.963,3.466,0.802,5.808
		c4.684-0.855,2.235-8.854,4.16-12.441c6.426,0.73,15.851,6.329,21.983,2.482c2.388-1.484,1.978-4.303,4.158-6.624
		c6.752,2.037,3.048,11.774,2.504,17.85c9.177-5.817,5.694-22.893,0-28.214c15.985-3.44,19.594-19.626,29.009-29.061
		c5.181-5.175,12.369-8.515,18.699-12.852c19.1-13.053,59.484-56.427,59.722-62.245c2.324,0.047,10.692-17.918,12.024-29.041
		c0.504-4.073,15.414-54.02,20.346-65.526c2.372-5.542,5.361-10.663,8.292-16.2c5.685-10.658,9.723-22.973,11.604-36.924
		c1.886-13.811,4.21-28.866,4.162-44.395C533.526,83.63,528.747,72.031,523.586,62.249z M444.795,119.657l-12.071,30.656
		l-1.476,5.232l-14.978-38.135l0.477-0.809c5.997-10.259,12.398-29.698,12.462-29.879l1.629-4.922l1.829,4.831
		c3.408,8.807,12.328,31.179,12.328,31.179l0.371,0.992L444.795,119.657z"/>
</g>
</svg>
